<svg width="200" height="200" viewBox="0 0 200 200" fill="none" xmlns="http://www.w3.org/2000/svg">
<path d="M122.928 6.66602C131.237 6.66607 139.207 9.96727 145.083 15.8431L184.155 54.9147C190.031 60.7908 193.333 68.7607 193.333 77.0707V122.929C193.333 131.239 190.031 139.208 184.155 145.084L145.083 184.155C139.207 190.031 131.238 193.333 122.928 193.333H77.07C68.76 193.333 60.7902 190.032 54.9141 184.155L15.8425 145.084C9.96671 139.208 6.66546 131.238 6.66541 122.929V77.0707C6.66544 68.7607 9.96644 60.7908 15.8425 54.9147L54.9141 15.8431C60.7902 9.96707 68.7607 6.6661 77.07 6.66602H122.928Z" fill="#FFB9AA"/>
<path d="M65.2728 154.575C66.3315 135.246 81.636 129.791 99.9807 130.547C118.997 129.763 134.747 135.654 134.747 156.756C120.833 159.603 102.314 152.062 99.9807 131.258C97.7654 151.009 80.962 158.806 67.3601 157.108C66.1031 156.951 65.2035 155.841 65.2728 154.575Z" fill="#ED4326"/>
<path d="M45.425 65.2728C64.755 66.3313 70.2093 81.6359 69.4533 99.9806C70.2373 118.997 64.347 134.747 43.2447 134.747C40.3973 120.832 47.9394 102.313 68.7439 99.9806C48.9924 97.7659 41.1945 80.9626 42.8925 67.3599C43.0494 66.1032 44.1604 65.2036 45.425 65.2728Z" fill="#ED4326"/>
<path d="M154.575 65.2728C155.839 65.2035 156.951 66.1032 157.107 67.3599C158.805 80.9626 151.007 97.7659 131.256 99.9806C152.061 102.313 159.603 120.832 156.755 134.747C135.653 134.747 129.763 118.997 130.547 99.9806C129.791 81.6359 135.245 66.3315 154.575 65.2728Z" fill="#ED4326"/>
<path fill-rule="evenodd" clip-rule="evenodd" d="M100 69.52C109.458 69.52 117.155 72.1874 122.484 77.5167C127.814 82.8467 130.481 90.5434 130.481 100.001C130.481 109.459 127.814 117.155 122.484 122.485C117.155 127.815 109.458 130.481 100 130.481C90.5426 130.481 82.846 127.815 77.516 122.485C72.1866 117.155 69.5193 109.459 69.5193 100.001C69.5193 90.5434 72.1866 82.8467 77.516 77.5167C82.846 72.1874 90.542 69.52 100 69.52ZM100 73.1994C96.6373 73.1994 96.3753 84.4687 90.3846 90.46C84.394 96.4507 73.1986 96.35 73.1986 100.001C73.1986 103.651 84.394 103.551 90.3846 109.542C96.3753 115.533 96.6373 126.802 100 126.802C103.363 126.802 103.625 115.533 109.615 109.542C115.606 103.551 126.801 103.651 126.801 100.001C126.801 96.35 115.606 96.4507 109.615 90.46C103.625 84.4687 103.363 73.1994 100 73.1994Z" fill="#ED4326"/>
<path d="M67.3594 42.892C80.9614 41.1941 97.7647 48.9915 99.98 68.742C102.313 47.9386 120.832 40.397 134.746 43.2442C134.746 64.3465 118.996 70.236 99.98 69.452C81.6354 70.208 66.3314 64.7542 65.2728 45.4245C65.2036 44.16 66.1028 43.0491 67.3594 42.892Z" fill="#ED4326"/>
</svg>
