<svg width="200" height="200" viewBox="0 0 200 200" fill="none" xmlns="http://www.w3.org/2000/svg">
<path d="M100 6.66675C119.405 6.66675 132.339 44.228 132.339 44.228C132.339 44.228 171.476 36.6011 181.178 53.3334C190.881 70.0661 164.678 100 164.678 100C164.678 100 190.881 129.934 181.178 146.667C171.476 163.399 132.339 155.772 132.339 155.772C132.339 155.772 119.405 193.333 100 193.333C80.596 193.333 67.6607 155.772 67.6607 155.772C67.6607 155.772 28.5239 163.399 18.8217 146.667C9.1196 129.934 35.3218 100 35.3218 100C35.3218 100 9.1196 70.0661 18.8217 53.3334C28.5239 36.6011 67.6607 44.228 67.6607 44.228C67.6607 44.228 80.596 6.66675 100 6.66675Z" fill="#89DCFF"/>
<path d="M97.2773 53.4993C98.8233 52.15 101.125 52.1504 102.671 53.5C107.122 57.3859 111.059 61.3233 114.945 65.7747C116.294 67.3206 116.295 69.6212 114.946 71.1679C111.083 75.5939 107.15 79.5272 102.724 83.3899C102.268 83.7879 101.746 84.0666 101.198 84.2299C101.727 84.3952 102.229 84.6699 102.671 85.0552C107.122 88.9412 111.059 92.8786 114.945 97.3299C115.33 97.7712 115.605 98.2746 115.77 98.8039C115.933 98.2552 116.213 97.7326 116.611 97.2766C120.473 92.8506 124.407 88.9172 128.833 85.0546C130.379 83.7052 132.68 83.7059 134.226 85.0552C138.677 88.9412 142.614 92.8786 146.5 97.3299C147.849 98.8759 147.851 101.177 146.501 102.723C142.639 107.149 138.705 111.083 134.279 114.945C132.733 116.295 130.432 116.293 128.886 114.944C124.435 111.058 120.497 107.121 116.611 102.67C116.226 102.229 115.951 101.726 115.786 101.197C115.623 101.745 115.343 102.267 114.946 102.723C111.083 107.149 107.15 111.083 102.724 114.945C102.268 115.343 101.746 115.622 101.198 115.785C101.727 115.951 102.229 116.226 102.671 116.611C107.122 120.497 111.059 124.435 114.945 128.886C116.294 130.432 116.295 132.733 114.946 134.279C111.083 138.705 107.15 142.639 102.724 146.501C101.177 147.851 98.8767 147.849 97.3307 146.5C92.8793 142.614 88.942 138.677 85.056 134.226C83.7067 132.68 83.706 130.379 85.0553 128.833C88.918 124.407 92.8513 120.473 97.2773 116.611C97.7333 116.213 98.2547 115.933 98.8033 115.769C98.2747 115.604 97.772 115.329 97.3307 114.944C92.8793 111.058 88.942 107.121 85.056 102.67C84.6707 102.229 84.396 101.726 84.2307 101.197C84.0673 101.745 83.788 102.267 83.39 102.723C79.5273 107.149 75.594 111.083 71.168 114.945C69.6213 116.295 67.3207 116.293 65.7747 114.944C61.3233 111.058 57.3859 107.121 53.4999 102.67C52.1505 101.124 52.1501 98.8232 53.4993 97.2766C57.3619 92.8506 61.2951 88.9172 65.7213 85.0546C67.2673 83.7052 69.5687 83.7059 71.1147 85.0552C75.566 88.9412 79.5027 92.8786 83.3887 97.3299C83.7733 97.7712 84.0487 98.2739 84.214 98.8026C84.3773 98.2546 84.6573 97.7326 85.0553 97.2766C88.918 92.8506 92.8513 88.9172 97.2773 85.0546C97.7327 84.6572 98.254 84.3766 98.802 84.2132C98.2733 84.0479 97.7713 83.7732 97.3307 83.3886C92.8793 79.5026 88.942 75.5659 85.056 71.1146C83.7067 69.5686 83.706 67.2679 85.0553 65.7213C88.918 61.295 92.8513 57.3619 97.2773 53.4993Z" fill="#006AE7"/>
</svg>
