<svg width="200" height="200" viewBox="0 0 200 200" fill="none" xmlns="http://www.w3.org/2000/svg">
<path d="M100 6.66675C128.961 6.66675 152.527 14.8329 168.847 31.1531C185.167 47.4732 193.333 71.0394 193.333 100C193.333 128.961 185.167 152.527 168.847 168.847C152.527 185.168 128.96 193.333 100 193.333C71.0394 193.333 47.4726 185.168 31.1524 168.847C14.8322 152.527 6.66669 128.961 6.66669 100C6.66675 71.0401 14.8324 47.4732 31.1524 31.1531C47.4726 14.8329 71.0394 6.66675 100 6.66675Z" fill="#FFB9AA"/>
<path fill-rule="evenodd" clip-rule="evenodd" d="M100 6.66675C101.345 6.66675 102.679 6.68428 104 6.71948V59.4096C107.664 59.6417 111.105 60.1994 114.301 61.0827L137.786 12.3165C140.359 13.1804 142.856 14.1431 145.274 15.2051L121.785 63.9799C124.873 65.5712 127.633 67.5667 130.033 69.9667C130.211 70.1461 130.388 70.3274 130.563 70.5107L173.5 36.2689C175.197 38.3198 176.785 40.4648 178.264 42.7013L135.329 76.9408C137.04 79.9488 138.344 83.2921 139.239 86.9394L191.063 75.1114C191.566 77.6908 191.987 80.3307 192.322 83.0301L140.506 94.8568C140.644 96.5241 140.714 98.2387 140.714 99.9994C140.714 101.76 140.644 103.475 140.506 105.141L192.322 116.968C191.987 119.667 191.565 122.307 191.063 124.887L139.239 113.058C138.344 116.706 137.041 120.049 135.329 123.057L178.265 157.297C176.786 159.534 175.197 161.679 173.501 163.731L130.562 129.488C130.387 129.671 130.211 129.853 130.033 130.032C127.633 132.432 124.873 134.427 121.785 136.018L145.275 184.794C142.857 185.857 140.36 186.819 137.787 187.683L114.301 138.915C111.105 139.798 107.664 140.357 104 140.589V193.28C102.679 193.315 101.345 193.333 100 193.333C98.6547 193.333 97.3213 193.315 96 193.28V140.589C92.3353 140.357 88.8947 139.798 85.6987 138.915L62.2135 187.683C59.6404 186.819 57.1433 185.857 54.7253 184.795L78.214 136.017C75.1267 134.426 72.3673 132.432 69.9673 130.032C69.788 129.853 69.6113 129.671 69.4367 129.487L26.4987 163.731C24.8018 161.679 23.2135 159.535 21.7344 157.298L64.6706 123.057C62.9593 120.049 61.6558 116.706 60.7604 113.059L8.9362 124.887C8.43373 122.308 8.0126 119.668 7.67706 116.969L59.4935 105.141C59.3552 103.475 59.2865 101.76 59.2865 99.9994C59.2865 98.2387 59.3551 96.5241 59.4935 94.8568L7.67773 83.0307C8.01326 80.3314 8.43373 77.6914 8.9362 75.1121L60.7597 86.9408C61.6551 83.2934 62.9586 79.9494 64.6699 76.9414L21.7344 42.7013C23.2137 40.4645 24.8022 38.3194 26.4993 36.2683L69.4367 70.5107C69.6113 70.3274 69.788 70.1461 69.9673 69.9667C72.3673 67.5667 75.1267 65.5718 78.214 63.9806L54.7253 15.2051C57.1434 14.1431 59.6403 13.1804 62.2135 12.3165L85.6987 61.0834C88.8947 60.2 92.3353 59.6417 96 59.4096V6.71948C97.3213 6.68428 98.6547 6.66675 100 6.66675ZM99.9987 69.9981C96.2347 69.9981 95.9413 82.6128 89.236 89.3194C82.5293 96.0254 69.9973 95.9127 69.9973 99.9994C69.9973 104.086 82.5293 103.973 89.236 110.68C95.9413 117.386 96.2347 130.001 99.9987 130.001C103.763 130.001 104.056 117.386 110.762 110.68C117.468 103.973 130 104.086 130 99.9994C130 95.9127 117.468 96.0254 110.762 89.3194C104.056 82.6128 103.763 69.9981 99.9987 69.9981Z" fill="#ED4326"/>
</svg>
